<svg id="visual" viewBox="0 0 900 600" width="900" height="600" xmlns="http://www.w3.org/2000/svg" xmlns:xlink="http://www.w3.org/1999/xlink" version="1.1"><rect x="0" y="0" width="900" height="600" fill="#001220"></rect><path d="M0 388L21.5 384.3C43 380.7 86 373.3 128.8 377.5C171.7 381.7 214.3 397.3 257.2 407.2C300 417 343 421 385.8 420C428.7 419 471.3 413 514.2 402C557 391 600 375 642.8 373C685.7 371 728.3 383 771.2 396.3C814 409.7 857 424.3 878.5 431.7L900 439L900 601L878.5 601C857 601 814 601 771.2 601C728.3 601 685.7 601 642.8 601C600 601 557 601 514.2 601C471.3 601 428.7 601 385.8 601C343 601 300 601 257.2 601C214.3 601 171.7 601 128.8 601C86 601 43 601 21.5 601L0 601Z" fill="#0066ff"></path><path d="M0 420L21.5 416.8C43 413.7 86 407.3 128.8 410.3C171.7 413.3 214.3 425.7 257.2 435.2C300 444.7 343 451.3 385.8 445.2C428.7 439 471.3 420 514.2 422.3C557 424.7 600 448.3 642.8 450.8C685.7 453.3 728.3 434.7 771.2 427.2C814 419.7 857 423.3 878.5 425.2L900 427L900 601L878.5 601C857 601 814 601 771.2 601C728.3 601 685.7 601 642.8 601C600 601 557 601 514.2 601C471.3 601 428.7 601 385.8 601C343 601 300 601 257.2 601C214.3 601 171.7 601 128.8 601C86 601 43 601 21.5 601L0 601Z" fill="#2059ff"></path><path d="M0 469L21.5 474.3C43 479.7 86 490.3 128.8 491.8C171.7 493.3 214.3 485.7 257.2 478.8C300 472 343 466 385.8 466.8C428.7 467.7 471.3 475.3 514.2 481.2C557 487 600 491 642.8 493.5C685.7 496 728.3 497 771.2 494.7C814 492.3 857 486.7 878.5 483.8L900 481L900 601L878.5 601C857 601 814 601 771.2 601C728.3 601 685.7 601 642.8 601C600 601 557 601 514.2 601C471.3 601 428.7 601 385.8 601C343 601 300 601 257.2 601C214.3 601 171.7 601 128.8 601C86 601 43 601 21.5 601L0 601Z" fill="#3849ff"></path><path d="M0 500L21.5 506.3C43 512.7 86 525.3 128.8 523.5C171.7 521.7 214.3 505.3 257.2 497.8C300 490.3 343 491.7 385.8 498.5C428.7 505.3 471.3 517.7 514.2 518.3C557 519 600 508 642.8 501.7C685.7 495.3 728.3 493.7 771.2 500.2C814 506.7 857 521.3 878.5 528.7L900 536L900 601L878.5 601C857 601 814 601 771.2 601C728.3 601 685.7 601 642.8 601C600 601 557 601 514.2 601C471.3 601 428.7 601 385.8 601C343 601 300 601 257.2 601C214.3 601 171.7 601 128.8 601C86 601 43 601 21.5 601L0 601Z" fill="#4f34ff"></path><path d="M0 562L21.5 559.2C43 556.3 86 550.7 128.8 550.2C171.7 549.7 214.3 554.3 257.2 552.5C300 550.7 343 542.3 385.8 537.2C428.7 532 471.3 530 514.2 536.5C557 543 600 558 642.8 559.7C685.7 561.3 728.3 549.7 771.2 548.2C814 546.7 857 555.3 878.5 559.7L900 564L900 601L878.5 601C857 601 814 601 771.2 601C728.3 601 685.7 601 642.8 601C600 601 557 601 514.2 601C471.3 601 428.7 601 385.8 601C343 601 300 601 257.2 601C214.3 601 171.7 601 128.8 601C86 601 43 601 21.5 601L0 601Z" fill="#6600ff"></path></svg>